<svg xmlns="http://www.w3.org/2000/svg" xmlns:xlink="http://www.w3.org/1999/xlink" viewBox="0 0 63 64"><defs><style>.cls-1{fill:url(#linear-gradient);}.cls-2{fill:url(#linear-gradient-2);}.cls-3{fill:url(#linear-gradient-3);}.cls-4{fill:url(#linear-gradient-4);}.cls-5{fill:url(#linear-gradient-5);}.cls-6{fill:url(#linear-gradient-6);}.cls-7{fill:url(#linear-gradient-7);}.cls-8{fill:url(#linear-gradient-8);}.cls-9{fill:url(#linear-gradient-9);}.cls-10{fill:url(#linear-gradient-10);}.cls-11{fill:url(#linear-gradient-11);}.cls-12{fill:url(#linear-gradient-12);}.cls-13{fill:url(#linear-gradient-13);}.cls-14{fill:url(#linear-gradient-14);}.cls-15{fill:url(#linear-gradient-15);}.cls-16{fill:url(#linear-gradient-16);}.cls-17{fill:url(#linear-gradient-17);}.cls-18{fill:url(#linear-gradient-18);}.cls-19{fill:url(#linear-gradient-19);}.cls-20{fill:url(#linear-gradient-20);}.cls-21{fill:url(#linear-gradient-21);}.cls-22{fill:url(#linear-gradient-22);}.cls-23{fill:url(#linear-gradient-23);}.cls-24{fill:url(#linear-gradient-24);}.cls-25{fill:url(#linear-gradient-25);}.cls-26{fill:url(#linear-gradient-26);}.cls-27{fill:url(#linear-gradient-27);}.cls-28{fill:url(#linear-gradient-28);}.cls-29{fill:url(#linear-gradient-29);}.cls-30{fill:url(#linear-gradient-30);}.cls-31{fill:url(#linear-gradient-31);}.cls-32{fill:url(#linear-gradient-32);}.cls-33{fill:url(#linear-gradient-33);}.cls-34{fill:url(#linear-gradient-34);}.cls-35{fill:url(#linear-gradient-35);}</style><linearGradient id="linear-gradient" x1="53.69" y1="42.43" x2="57.16" y2="42.43" gradientTransform="translate(78.64 -23.4) rotate(71.99)" gradientUnits="userSpaceOnUse"><stop offset="0" stop-color="#653493"/><stop offset="1" stop-color="#27aae1"/></linearGradient><linearGradient id="linear-gradient-2" x1="54.83" y1="45.79" x2="58.21" y2="45.79" gradientTransform="translate(60.31 -26.85) rotate(53.98)" xlink:href="#linear-gradient"/><linearGradient id="linear-gradient-3" x1="58.35" y1="45.79" x2="61.73" y2="45.79" gradientTransform="translate(38.37 -26.55) rotate(35.99)" xlink:href="#linear-gradient"/><linearGradient id="linear-gradient-4" x1="59.4" y1="42.43" x2="62.87" y2="42.43" gradientTransform="translate(16.14 -16.84) rotate(18.03)" xlink:href="#linear-gradient"/><linearGradient id="linear-gradient-5" x1="57.28" y1="40.36" x2="59.28" y2="40.36" gradientTransform="matrix(1, 0, 0, 1, 0, 0)" xlink:href="#linear-gradient"/><linearGradient id="linear-gradient-6" x1="1.13" y1="5.57" x2="4.6" y2="5.57" gradientTransform="translate(7.28 1.12) rotate(71.99)" xlink:href="#linear-gradient"/><linearGradient id="linear-gradient-7" x1="2.27" y1="8.93" x2="5.65" y2="8.93" gradientTransform="translate(8.85 0.48) rotate(53.98)" xlink:href="#linear-gradient"/><linearGradient id="linear-gradient-8" x1="5.79" y1="8.93" x2="9.17" y2="8.93" gradientTransform="translate(6.67 -2.69) rotate(35.99)" xlink:href="#linear-gradient"/><linearGradient id="linear-gradient-9" x1="6.84" y1="5.57" x2="10.31" y2="5.57" gradientTransform="translate(2.15 -2.38) rotate(18.03)" xlink:href="#linear-gradient"/><linearGradient id="linear-gradient-10" x1="4.72" y1="3.5" x2="6.72" y2="3.5" gradientTransform="matrix(1, 0, 0, 1, 0, 0)" xlink:href="#linear-gradient"/><linearGradient id="linear-gradient-11" x1="11.24" y1="57.36" x2="18.31" y2="57.36" gradientTransform="matrix(1, 0, 0, 1, 0, 0)" xlink:href="#linear-gradient"/><linearGradient id="linear-gradient-12" x1="0" y1="35" x2="3" y2="35" gradientTransform="matrix(1, 0, 0, 1, 0, 0)" xlink:href="#linear-gradient"/><linearGradient id="linear-gradient-13" x1="7" y1="35" x2="13" y2="35" gradientTransform="matrix(1, 0, 0, 1, 0, 0)" xlink:href="#linear-gradient"/><linearGradient id="linear-gradient-14" x1="4" y1="31.5" x2="6" y2="31.5" gradientTransform="matrix(1, 0, 0, 1, 0, 0)" xlink:href="#linear-gradient"/><linearGradient id="linear-gradient-15" x1="4" y1="38.5" x2="6" y2="38.5" gradientTransform="matrix(1, 0, 0, 1, 0, 0)" xlink:href="#linear-gradient"/><linearGradient id="linear-gradient-16" x1="55" y1="5" x2="57" y2="5" gradientTransform="matrix(1, 0, 0, 1, 0, 0)" xlink:href="#linear-gradient"/><linearGradient id="linear-gradient-17" x1="59" y1="5" x2="61" y2="5" gradientTransform="matrix(1, 0, 0, 1, 0, 0)" xlink:href="#linear-gradient"/><linearGradient id="linear-gradient-18" x1="57" y1="3" x2="59" y2="3" gradientTransform="matrix(1, 0, 0, 1, 0, 0)" xlink:href="#linear-gradient"/><linearGradient id="linear-gradient-19" x1="57" y1="7" x2="59" y2="7" gradientTransform="matrix(1, 0, 0, 1, 0, 0)" xlink:href="#linear-gradient"/><linearGradient id="linear-gradient-20" x1="53" y1="29" x2="55" y2="29" gradientTransform="matrix(1, 0, 0, 1, 0, 0)" xlink:href="#linear-gradient"/><linearGradient id="linear-gradient-21" x1="57" y1="29" x2="59" y2="29" gradientTransform="matrix(1, 0, 0, 1, 0, 0)" xlink:href="#linear-gradient"/><linearGradient id="linear-gradient-22" x1="61" y1="29" x2="63" y2="29" gradientTransform="matrix(1, 0, 0, 1, 0, 0)" xlink:href="#linear-gradient"/><linearGradient id="linear-gradient-23" x1="6" y1="48" x2="11" y2="48" gradientTransform="matrix(1, 0, 0, 1, 0, 0)" xlink:href="#linear-gradient"/><linearGradient id="linear-gradient-24" x1="11" y1="45" x2="17" y2="45" gradientTransform="matrix(1, 0, 0, 1, 0, 0)" xlink:href="#linear-gradient"/><linearGradient id="linear-gradient-25" x1="55" y1="17" x2="58" y2="17" gradientTransform="matrix(1, 0, 0, 1, 0, 0)" xlink:href="#linear-gradient"/><linearGradient id="linear-gradient-26" x1="58" y1="20" x2="62" y2="20" gradientTransform="matrix(1, 0, 0, 1, 0, 0)" xlink:href="#linear-gradient"/><linearGradient id="linear-gradient-27" x1="49" y1="54" x2="52" y2="54" gradientTransform="matrix(1, 0, 0, 1, 0, 0)" xlink:href="#linear-gradient"/><linearGradient id="linear-gradient-28" x1="52" y1="57" x2="56" y2="57" gradientTransform="matrix(1, 0, 0, 1, 0, 0)" xlink:href="#linear-gradient"/><linearGradient id="linear-gradient-29" x1="3" y1="20" x2="6" y2="20" gradientTransform="matrix(1, 0, 0, 1, 0, 0)" xlink:href="#linear-gradient"/><linearGradient id="linear-gradient-30" x1="7" y1="17" x2="9" y2="17" gradientTransform="matrix(1, 0, 0, 1, 0, 0)" xlink:href="#linear-gradient"/><linearGradient id="linear-gradient-31" x1="13" y1="32" x2="51" y2="32" gradientTransform="matrix(1, 0, 0, 1, 0, 0)" xlink:href="#linear-gradient"/><linearGradient id="linear-gradient-32" x1="25" y1="19" x2="39" y2="19" gradientTransform="matrix(1, 0, 0, 1, 0, 0)" xlink:href="#linear-gradient"/><linearGradient id="linear-gradient-33" x1="17.8" y1="19" x2="46.2" y2="19" gradientTransform="matrix(1, 0, 0, 1, 0, 0)" xlink:href="#linear-gradient"/><linearGradient id="linear-gradient-34" x1="29" y1="37" x2="31" y2="37" gradientTransform="matrix(1, 0, 0, 1, 0, 0)" xlink:href="#linear-gradient"/><linearGradient id="linear-gradient-35" x1="33" y1="37" x2="35" y2="37" gradientTransform="matrix(1, 0, 0, 1, 0, 0)" xlink:href="#linear-gradient"/></defs><title>Logical Thinkers</title><g id="Layer_2" data-name="Layer 2"><g id="Layer_1-2" data-name="Layer 1"><rect class="cls-1" x="54.43" y="40.93" width="2" height="3" transform="translate(-2.06 82.02) rotate(-71.99)"/><rect class="cls-2" x="55.02" y="44.79" width="3" height="2" transform="matrix(0.59, -0.81, 0.81, 0.59, -13.75, 64.57)"/><rect class="cls-3" x="59.04" y="44.29" width="2" height="3" transform="translate(-15.45 44.03) rotate(-35.99)"/><rect class="cls-4" x="59.63" y="41.43" width="3" height="2" transform="translate(-10.13 21.01) rotate(-18.03)"/><rect class="cls-5" x="57.28" y="38.86" width="2" height="3"/><rect class="cls-6" x="1.87" y="4.07" width="2" height="3" transform="translate(-3.32 6.58) rotate(-71.99)"/><rect class="cls-7" x="2.46" y="7.93" width="3" height="2" transform="translate(-5.59 6.88) rotate(-53.98)"/><rect class="cls-8" x="6.48" y="7.43" width="2" height="3" transform="translate(-3.82 6.1) rotate(-35.99)"/><rect class="cls-9" x="7.07" y="4.57" width="3" height="2" transform="translate(-1.3 2.93) rotate(-18.03)"/><rect class="cls-10" x="4.72" y="2" width="2" height="3"/><path class="cls-11" d="M17.69,55.39,15.77,56V54h-2v2l-1.92-.62-.62,1.9,1.92.62L12,59.55l1.62,1.18,1.19-1.63L16,60.73l1.62-1.18-1.19-1.63,1.92-.62Zm-2.92,3.4-1.33-1,.51-1.56h1.64l.51,1.56Z"/><rect class="cls-12" y="34" width="3" height="2"/><rect class="cls-13" x="7" y="34" width="6" height="2"/><rect class="cls-14" x="4" y="30" width="2" height="3"/><rect class="cls-15" x="4" y="37" width="2" height="3"/><rect class="cls-16" x="55" y="4" width="2" height="2"/><rect class="cls-17" x="59" y="4" width="2" height="2"/><rect class="cls-18" x="57" y="2" width="2" height="2"/><rect class="cls-19" x="57" y="6" width="2" height="2"/><rect class="cls-20" x="53" y="28" width="2" height="2"/><rect class="cls-21" x="57" y="28" width="2" height="2"/><rect class="cls-22" x="61" y="28" width="2" height="2"/><rect class="cls-23" x="6" y="47" width="5" height="2"/><rect class="cls-24" x="11" y="44" width="6" height="2"/><rect class="cls-25" x="55" y="16" width="3" height="2"/><rect class="cls-26" x="58" y="19" width="4" height="2"/><rect class="cls-27" x="49" y="53" width="3" height="2"/><rect class="cls-28" x="52" y="56" width="4" height="2"/><rect class="cls-29" x="3" y="19" width="3" height="2"/><rect class="cls-30" x="7" y="16" width="2" height="2"/><path class="cls-31" d="M51,19A19,19,0,1,0,24,36.24V41H22v3H21v2h1v2H21v2h1v2H21v2h1v3h2.22l1,4h3.06l1,3h5.44l1-3h3.06l1-4H42V54h1V52H42V50h1V48H42V46h1V44H42V41H40V36.24A19,19,0,0,0,51,19ZM33.28,62H30.72l-.33-1h3.22Zm3.94-3H26.78l-.5-2H37.72ZM40,55H24V54H40Zm0-3H24V50H40Zm0-4H24V46H40Zm0-4H24V43H40ZM26,41V34.92l-.61-.26a17,17,0,1,1,13.22,0l-.61.26V41Z"/><path class="cls-32" d="M32,12a7,7,0,1,0,7,7A7,7,0,0,0,32,12Zm0,12a5,5,0,1,1,5-5A5,5,0,0,1,32,24Z"/><path class="cls-33" d="M40.63,30.44,40,29.59A2,2,0,0,1,42.59,27l.85.62.57-.89A14.17,14.17,0,0,0,46,22l.22-1-1-.16A1.76,1.76,0,0,1,43.93,19a1.76,1.76,0,0,1,1.22-1.83l1-.16L46,16a14.17,14.17,0,0,0-2-4.72l-.57-.89-.85.62a1.76,1.76,0,0,1-2.16-.43A1.76,1.76,0,0,1,40,8.41l.62-.85L39.74,7A14.15,14.15,0,0,0,35,5L34,4.8l-.16,1a2,2,0,0,1-3.65,0L30,4.8,29,5a14.15,14.15,0,0,0-4.72,2l-.89.57.62.85a1.76,1.76,0,0,1-.43,2.16,1.76,1.76,0,0,1-2.16.43l-.85-.62-.57.89A14.17,14.17,0,0,0,18,16l-.22,1,1,.16A1.76,1.76,0,0,1,20.07,19a1.76,1.76,0,0,1-1.22,1.83l-1,.16L18,22a14.17,14.17,0,0,0,2,4.72l.57.89.85-.62A2,2,0,0,1,24,29.59l-.62.85.89.57A14.15,14.15,0,0,0,29,33l1,.22.16-1a2,2,0,0,1,3.65,0l.16,1L35,33a14.15,14.15,0,0,0,4.72-2Zm-2.72-.66a12.1,12.1,0,0,1-2.47,1,4.09,4.09,0,0,0-6.88,0,12.1,12.1,0,0,1-2.47-1,4.1,4.1,0,0,0-4.87-4.87,12.16,12.16,0,0,1-1-2.47,4.09,4.09,0,0,0,0-6.88,12.12,12.12,0,0,1,1-2.47A3.89,3.89,0,0,0,25,12a3.88,3.88,0,0,0,1.11-3.76,12.11,12.11,0,0,1,2.47-1,4.09,4.09,0,0,0,6.88,0,12.11,12.11,0,0,1,2.47,1A3.88,3.88,0,0,0,39,12a3.89,3.89,0,0,0,3.76,1.11,12.13,12.13,0,0,1,1,2.47,4.09,4.09,0,0,0,0,6.88,12.13,12.13,0,0,1-1,2.47,4.1,4.1,0,0,0-4.87,4.87Z"/><rect class="cls-34" x="29" y="34" width="2" height="6"/><rect class="cls-35" x="33" y="34" width="2" height="6"/></g></g></svg>