<?xml version="1.0" encoding="UTF-8"?>
<!DOCTYPE svg PUBLIC "-//W3C//DTD SVG 1.1//EN" "http://www.w3.org/Graphics/SVG/1.1/DTD/svg11.dtd">
<!-- Creator: CorelDRAW 2017 -->
<svg xmlns="http://www.w3.org/2000/svg" xml:space="preserve" width="210mm" height="297mm" version="1.1" style="shape-rendering:geometricPrecision; text-rendering:geometricPrecision; image-rendering:optimizeQuality; fill-rule:evenodd; clip-rule:evenodd"
viewBox="0 0 21000 29700"
 xmlns:xlink="http://www.w3.org/1999/xlink"
 enable-background="new 0 0 1000 1000">
 <defs>
  <style type="text/css">
   <![CDATA[
    .str0 {stroke:#00AFEF;stroke-width:7.62;stroke-miterlimit:22.9256}
    .fil0 {fill:#0098DA}
   ]]>
  </style>
 </defs>
 <g id="Слой_x0020_1">
  <metadata id="CorelCorpID_0Corel-Layer"/>
  <g id="_2782750993024">
   <path class="fil0 str0" d="M18860.1 4560l-14147.7 0c-1064.7,0 -1929.9,863.1 -1929.9,1929.9l0 1285.2 -642.6 0c-1066.8,0 -1929.9,863.1 -1929.9,1929.9l0 12862.5c0,1419.6 1150.8,2572.5 2572.5,2572.5l15435 0c1421.7,0 2572.5,-1152.9 2572.5,-2572.5l0 -16077.6c0,-1066.8 -863.1,-1929.9 -1929.9,-1929.9zm642.6 18007.5c0,709.8 -575.4,1285.2 -1285.2,1285.2l-15435 0c-709.8,0 -1285.2,-577.5 -1285.2,-1285.2l0 -12862.5c0,-354.9 287.7,-642.6 642.6,-642.6l642.6 0 0 12862.5c0,354.9 287.7,642.6 642.6,642.6 354.9,0 642.6,-287.7 642.6,-642.6l0 -15435c0,-354.9 287.7,-642.6 642.6,-642.6l14147.7 0c354.9,0 642.6,287.7 642.6,642.6l0 16077.6 2.1 0z"/>
   <path class="fil0 str0" d="M12751.2 12924.3l5145 0c178.5,0 321.3,-144.9 321.3,-321.3 0,-176.4 -144.9,-321.3 -321.3,-321.3l-5145 0c-176.4,0 -321.3,144.9 -321.3,321.3 -2.1,176.4 142.8,321.3 321.3,321.3z"/>
   <path class="fil0 str0" d="M12751.2 10994.4l5145 0c178.5,0 321.3,-144.9 321.3,-321.3 0,-176.4 -144.9,-321.3 -321.3,-321.3l-5145 0c-176.4,0 -321.3,144.9 -321.3,321.3 -2.1,176.4 142.8,321.3 321.3,321.3z"/>
   <path class="fil0 str0" d="M12751.2 9064.5l5145 0c178.5,0 321.3,-144.9 321.3,-321.3 0,-176.4 -144.9,-321.3 -321.3,-321.3l-5145 0c-176.4,0 -321.3,144.9 -321.3,321.3 0,176.4 142.8,321.3 321.3,321.3z"/>
   <path class="fil0 str0" d="M10821.3 21927l-5145 0c-176.4,0 -321.3,144.9 -321.3,321.3 0,178.5 144.9,321.3 321.3,321.3l5145 0c178.5,0 321.3,-142.8 321.3,-321.3 0,-176.4 -142.8,-321.3 -321.3,-321.3z"/>
   <path class="fil0 str0" d="M10821.3 19997.1l-5145 0c-176.4,0 -321.3,144.9 -321.3,321.3 0,178.5 144.9,321.3 321.3,321.3l5145 0c178.5,0 321.3,-142.8 321.3,-321.3 0,-176.4 -142.8,-321.3 -321.3,-321.3z"/>
   <path class="fil0 str0" d="M10821.3 18067.2l-5145 0c-176.4,0 -321.3,144.9 -321.3,321.3 0,178.5 144.9,321.3 321.3,321.3l5145 0c178.5,0 321.3,-142.8 321.3,-321.3 0,-176.4 -142.8,-321.3 -321.3,-321.3z"/>
   <path class="fil0 str0" d="M17896.2 21927l-5145 0c-178.5,0 -321.3,144.9 -321.3,321.3 0,178.5 144.9,321.3 321.3,321.3l5145 0c178.5,0 321.3,-142.8 321.3,-321.3 0,-176.4 -144.9,-321.3 -321.3,-321.3z"/>
   <path class="fil0 str0" d="M17896.2 19997.1l-5145 0c-178.5,0 -321.3,144.9 -321.3,321.3 0,178.5 144.9,321.3 321.3,321.3l5145 0c178.5,0 321.3,-142.8 321.3,-321.3 0,-176.4 -144.9,-321.3 -321.3,-321.3z"/>
   <path class="fil0 str0" d="M17896.2 18067.2l-5145 0c-178.5,0 -321.3,144.9 -321.3,321.3 0,178.5 144.9,321.3 321.3,321.3l5145 0c178.5,0 321.3,-142.8 321.3,-321.3 0,-176.4 -144.9,-321.3 -321.3,-321.3z"/>
   <path class="fil0 str0" d="M17896.2 14209.5l-12219.9 0c-176.4,0 -321.3,144.9 -321.3,321.3 0,178.5 144.9,321.3 321.3,321.3l12219.9 0c178.5,0 321.3,-144.9 321.3,-321.3 0,-176.4 -144.9,-321.3 -321.3,-321.3z"/>
   <path class="fil0 str0" d="M17896.2 16139.4l-12219.9 0c-176.4,0 -321.3,144.9 -321.3,321.3 0,178.5 144.9,321.3 321.3,321.3l12219.9 0c178.5,0 321.3,-142.8 321.3,-321.3 0,-178.5 -144.9,-321.3 -321.3,-321.3z"/>
   <path class="fil0 str0" d="M5997.6 12920.1l4502.4 0c354.9,0 642.6,-287.7 642.6,-642.6l0 -4498.2c0,-354.9 -287.7,-642.6 -642.6,-642.6l-4502.4 0c-354.9,0 -642.6,287.7 -642.6,642.6l0 4498.2c0,354.9 287.7,642.6 642.6,642.6zm644.7 -4502.4l3215.1 0 0 3215.1 -3215.1 0 0 -3215.1z"/>
  </g>
 </g>
</svg>
