<?xml version="1.0" encoding="UTF-8"?>
<!DOCTYPE svg PUBLIC "-//W3C//DTD SVG 1.1//EN" "http://www.w3.org/Graphics/SVG/1.1/DTD/svg11.dtd">
<!-- Creator: CorelDRAW 2017 -->
<svg xmlns="http://www.w3.org/2000/svg" xml:space="preserve" width="235mm" height="185mm" version="1.1" style="shape-rendering:geometricPrecision; text-rendering:geometricPrecision; image-rendering:optimizeQuality; fill-rule:evenodd; clip-rule:evenodd"
viewBox="0 0 23500 18500"
 xmlns:xlink="http://www.w3.org/1999/xlink">
 <defs>
  <style type="text/css">
   <![CDATA[
    .str0 {stroke:#FEFEFE;stroke-width:7.62;stroke-miterlimit:22.9256}
    .fil4 {fill:#FEFEFE}
    .fil3 {fill:#008DD2}
    .fil2 {fill:#A2D9F7}
    .fil0 {fill:#A1D8F6;fill-rule:nonzero}
    .fil1 {fill:#A1D8F6;fill-rule:nonzero}
   ]]>
  </style>
 </defs>
 <g id="Слой_x0020_1">
  <metadata id="CorelCorpID_0Corel-Layer"/>
  <g id="__x007b__x007d_">
   <path class="fil0" d="M263.68 10374.33c377.96,-10.01 685.83,-110.13 923.61,-305.37 237.79,-192.73 397.98,-458.05 475.57,-793.45 77.6,-337.91 120.15,-913.6 125.15,-1729.58 2.51,-815.98 15.02,-1354.12 37.55,-1614.43 45.05,-410.5 125.15,-738.39 245.29,-988.69 117.65,-247.8 265.32,-448.04 440.53,-598.22 175.21,-147.68 400.48,-262.82 673.31,-340.41 185.22,-47.56 485.58,-72.59 906.09,-72.59l407.99 0 0 1156.39 -225.27 0c-503.11,0 -836,92.61 -1001.2,275.33 -162.7,182.72 -245.3,590.71 -245.3,1226.48 0,1279.03 -27.53,2087.5 -82.6,2425.41 -87.6,523.13 -240.29,926.11 -453.04,1208.95 -215.26,282.84 -550.66,535.64 -1011.21,753.4 543.15,225.27 936.12,568.19 1181.41,1028.74 242.8,460.55 365.44,1216.46 365.44,2265.22 0,951.14 5.01,1516.82 15.02,1697.04 40.05,332.89 137.67,563.17 295.35,695.83 160.2,132.66 470.57,197.74 933.63,197.74l227.77 0 0 1156.39 -410.49 0c-478.08,0 -826,-40.05 -1041.25,-117.64 -310.38,-112.64 -570.69,-292.86 -775.94,-545.66 -205.24,-250.3 -337.9,-568.18 -397.97,-953.64 -62.58,-385.47 -95.12,-1018.73 -100.12,-1897.28 -5.01,-878.56 -47.56,-1486.79 -125.15,-1822.19 -77.6,-337.91 -232.78,-603.22 -468.07,-798.46 -237.78,-195.23 -540.64,-297.86 -916.1,-307.87l0 -1201.44z"/>
   <path class="fil0" d="M23236.32 10374.33c-377.96,-10.01 -685.83,-110.13 -923.61,-305.37 -237.79,-192.73 -397.98,-458.05 -475.57,-793.45 -77.6,-337.91 -120.15,-913.6 -125.15,-1729.58 -2.51,-815.98 -15.02,-1354.12 -37.55,-1614.43 -45.05,-410.5 -125.15,-738.39 -245.29,-988.69 -117.65,-247.8 -265.32,-448.04 -440.53,-598.22 -175.21,-147.68 -400.48,-262.82 -673.31,-340.41 -185.22,-47.56 -485.58,-72.59 -906.09,-72.59l-407.99 0 0 1156.39 225.27 0c503.11,0 836,92.61 1001.2,275.33 162.7,182.72 245.3,590.71 245.3,1226.48 0,1279.03 27.53,2087.5 82.6,2425.41 87.6,523.13 240.29,926.11 453.04,1208.95 215.26,282.84 550.66,535.64 1011.21,753.4 -543.15,225.27 -936.12,568.19 -1181.41,1028.74 -242.8,460.55 -365.44,1216.46 -365.44,2265.22 0,951.14 -5.01,1516.82 -15.02,1697.04 -40.05,332.89 -137.67,563.17 -295.35,695.83 -160.2,132.66 -470.57,197.74 -933.63,197.74l-227.77 0 0 1156.39 410.49 0c478.08,0 826,-40.05 1041.25,-117.64 310.38,-112.64 570.69,-292.86 775.94,-545.66 205.24,-250.3 337.9,-568.18 397.97,-953.64 62.58,-385.47 95.12,-1018.73 100.12,-1897.28 5.01,-878.56 47.56,-1486.79 125.15,-1822.19 77.6,-337.91 232.78,-603.22 468.07,-798.46 237.78,-195.23 540.64,-297.86 916.1,-307.87l0 -1201.44z"/>
  </g>
  <g id="inf">
   <path id="f" class="fil1" d="M15742.08 9638.2l0 2560.52 1359.07 0c72.61,0 123.93,13.84 155.15,42.57 31.33,27.55 47.65,65.16 47.65,111.4 0,43.87 -16.32,80.17 -47.65,110.21 -31.22,28.73 -82.54,43.75 -155.15,43.75l-2410.33 0c-72.61,0 -123.93,-15.02 -155.27,-43.75 -31.22,-30.04 -47.54,-66.34 -47.54,-110.21 0,-46.24 16.32,-83.85 47.54,-111.4 31.34,-28.73 82.66,-42.57 155.27,-42.57l743.33 0 0 -2560.52 -665.76 0c-73.91,0 -126.41,-15.01 -157.75,-43.75 -31.22,-28.85 -47.54,-66.34 -47.54,-111.39 0,-43.87 16.32,-80.18 47.54,-108.91 31.34,-28.86 83.84,-43.87 157.75,-43.87l665.76 0 0 -465.56c0,-258.98 105.13,-484.25 315.38,-674.51 208.95,-191.45 488.14,-286.65 833.56,-286.65 291.49,0 600.72,26.37 929.82,80.18 125.11,19.98 200.2,42.57 225.27,70 26.25,26.37 38.78,61.38 38.78,105.13 0,43.87 -15.02,80.17 -43.75,107.73 -30.04,28.73 -68.82,42.45 -117.66,42.45 -20.1,0 -52.62,-3.67 -98.86,-11.23 -369.18,-57.59 -680.9,-86.33 -934.9,-86.33 -269.03,0 -475.61,66.34 -622.01,199.02 -145.21,132.68 -217.7,282.86 -217.7,451.72l0 468.05 1441.73 0c72.49,0 123.81,15.01 155.15,43.87 31.22,28.73 47.53,66.34 47.53,111.39 0,43.75 -16.31,80.06 -47.53,108.91 -31.34,28.74 -82.66,43.75 -155.15,43.75l-1441.73 0z"/>
   <path id="n" class="fil1" d="M10439.41 9330.28l0 473.12c215.22,-219 409.15,-369.18 583.1,-453.02 173.95,-83.84 369.19,-125.23 587.01,-125.23 234.02,0 448.05,50.14 640.81,150.18 137.64,72.61 261.57,195.23 372.84,364.22 111.4,170.28 166.5,344.23 166.5,521.84l0 1937.33 255.31 0c75.09,0 128.9,13.84 161.41,42.57 32.52,27.55 48.84,65.16 48.84,111.4 0,43.87 -16.32,80.17 -48.84,110.21 -32.51,28.73 -86.32,43.75 -161.41,43.75l-818.42 0c-76.39,0 -130.2,-15.02 -162.72,-43.75 -31.34,-30.04 -47.54,-66.34 -47.54,-110.21 0,-46.24 16.2,-83.85 47.54,-111.4 32.52,-28.73 86.33,-42.57 162.72,-42.57l255.3 0 0 -1888.49c0,-217.7 -78.87,-401.7 -237.8,-551.88 -158.93,-150.18 -371.79,-225.27 -638.33,-225.27 -202.68,0 -379.23,41.27 -528.11,122.63 -148.88,82.65 -361.74,286.64 -638.21,613.25l0 1929.76 337.85 0c75.09,0 128.89,13.84 161.41,42.57 32.52,27.55 48.84,65.16 48.84,111.4 0,43.87 -16.32,80.17 -48.84,110.21 -32.52,28.73 -86.32,43.75 -161.41,43.75l-983.63 0c-75.09,0 -129.01,-15.02 -161.53,-43.75 -32.52,-30.04 -48.72,-66.34 -48.72,-110.21 0,-46.24 16.2,-83.85 48.72,-111.4 32.52,-28.73 86.44,-42.57 161.53,-42.57l337.85 0 0 -2560.52 -255.31 0c-75.09,0 -128.89,-13.71 -161.41,-42.57 -32.52,-28.73 -48.84,-66.34 -48.84,-111.39 0,-43.75 16.32,-80.06 48.84,-110.09 32.52,-28.86 86.32,-43.87 161.41,-43.87l563.24 0z"/>
   <g id="i">
    <path class="fil1" d="M7096.54 9330.28l0 2868.44 1201.44 0c76.39,0 130.2,13.84 162.72,42.57 31.21,27.55 47.53,65.16 47.53,111.4 0,43.87 -16.32,80.17 -47.53,110.21 -32.52,28.73 -86.33,43.75 -162.72,43.75l-2718.26 0c-72.61,0 -123.93,-15.02 -155.15,-43.75 -31.34,-30.04 -47.54,-66.34 -47.54,-110.21 0,-46.24 16.2,-83.85 47.54,-111.4 31.22,-28.73 82.54,-42.57 155.15,-42.57l1209.01 0 0 -2560.52 -893.64 0c-73.79,0 -127.59,-15.01 -160.23,-43.75 -33.7,-28.85 -50.02,-65.16 -50.02,-108.91 0,-45.05 16.32,-82.66 47.54,-111.39 32.52,-28.86 86.32,-43.87 162.71,-43.87l1201.45 0z"/>
    <polygon class="fil1" points="7089.09,7753.38 7089.09,8541.89 6630.98,8541.89 6630.98,7753.38 "/>
   </g>
  </g>
  <g id="bird">
   <path class="fil2" d="M21563.16 845.79c16.44,-2.36 59.72,-7.92 101.23,-0.23 41.39,7.68 80.76,28.62 99.57,39.85 18.68,11.23 16.67,12.89 21.64,18.45 4.84,5.44 16.67,14.9 25.07,27.31 8.27,12.3 13.24,27.67 28.38,138.59 15.13,110.92 40.67,317.39 81.12,521.73 40.32,204.34 95.78,406.44 143.08,619.88 47.18,213.45 86.33,438.24 63.5,773.96 -22.82,335.6 -107.49,782.24 -154.79,1054.46 -47.3,272.1 -57,369.89 -51.91,454.8 5.08,84.78 24.95,156.68 44.93,200.32 19.87,43.63 39.62,58.89 15.61,63.62 -24,4.73 -92,-1.07 -203.86,-31.11 -111.99,-30.03 -267.96,-84.31 -413.29,-179.5 -145.34,-95.31 -280.14,-231.66 -406.67,-397.57 -126.53,-166.02 -245.02,-361.49 -322.95,-542.89 -77.93,-181.52 -115.42,-348.73 -128.66,-528.47 -13.36,-179.86 -2.48,-372.26 26.84,-535.21 29.33,-162.95 77.1,-296.58 108.91,-388.11 31.7,-91.52 47.54,-140.95 118.73,-221.01 71.07,-80.17 197.6,-190.98 311.48,-269.14 113.75,-78.28 214.74,-123.93 306.03,-158.1 91.29,-34.3 172.77,-57 234.73,-84.67 61.85,-27.79 104.3,-60.31 125.47,-115.77 21.17,-55.46 21.17,-133.63 6.74,-208.48 -14.55,-74.97 -43.4,-146.4 -75.21,-187.9 -31.81,-41.51 -66.46,-53.1 -83.72,-58.77 -17.38,-5.8 -17.38,-5.8 -22.59,-5.33 -5.32,0.48 -15.84,1.54 0.59,-0.71z"/>
   <path class="fil3" d="M20812.26 1570.21c-19.39,0.47 -34.53,-88.57 -74.5,-181.52 -40.08,-93.06 -104.89,-190.03 -153.13,-252.94 -48.37,-63.03 -80.18,-91.88 -115.06,-118.37 -35.01,-26.61 -72.97,-50.85 -113.53,-72.14 -40.56,-21.4 -83.48,-39.96 -140.12,-52.26 -56.77,-12.42 -127.01,-18.57 -190.04,-6.15 -63.02,12.3 -118.6,43.28 -152.9,107.02 -34.41,63.62 -47.42,159.99 -37.13,233.9 10.29,73.91 43.87,125.35 101.82,163.78 57.94,38.43 140.36,63.97 215.22,90.58 74.73,26.61 142.02,54.16 214.98,91.17 72.96,37.02 151.48,83.37 219.36,143.21 67.76,59.83 124.75,133.03 151.72,171.7 26.96,38.55 23.76,42.57 22.23,44.58 -1.54,1.89 -1.54,1.89 -1.54,1.89 0,0 -0.12,0 -10.29,11.71 -10.29,11.71 -30.86,35.12 -64.8,117.9 -33.94,82.77 -81.24,224.91 -114.35,375.45 -33.11,150.41 -51.8,309.23 -44.94,489.92 6.86,180.69 39.5,383.25 98.15,565.71 58.54,182.35 143.21,344.59 278.37,522.21 135.04,177.49 320.7,370.24 413.64,466.74 92.83,96.49 93.07,96.61 93.19,96.73 0,0 0,-0.12 -65.51,-28.74 -65.63,-28.73 -196.66,-86.2 -361.5,-173.35 -164.96,-87.27 -363.86,-204.23 -557.8,-401.23 -193.93,-197.13 -382.9,-474.08 -505.05,-861.95 -122.28,-387.86 -177.74,-886.41 -205.41,-1269.31 -27.67,-383.02 -27.67,-650.27 47.3,-847.4 74.98,-197.25 224.8,-324.37 363.39,-399.34 138.48,-74.97 265.6,-97.79 410.69,-109.15 144.98,-11.47 307.93,-11.47 453.03,-3.31 144.98,8.16 272.1,24.48 381.36,57.12 109.15,32.52 200.32,81.48 270.56,146.51 70.24,65.04 119.32,146.16 144.39,188.97 24.95,42.69 25.78,47.07 26.25,49.19 0.36,2.13 0.36,2.13 -0.83,0.6 -1.3,-1.66 -3.66,-4.97 -13.6,-15.26 -10.05,-10.29 -27.43,-27.67 -68.58,-43.28 -41.27,-15.73 -106.31,-29.56 -177.38,-25.54 -71.07,3.9 -148.29,25.66 -222.08,58.18 -73.79,32.4 -144.27,75.44 -203.51,124.4 -59.36,48.84 -107.61,103.59 -146.75,164.84 -39.14,61.26 -69.06,129.13 -95.79,208.01 -26.72,78.87 -50.25,168.74 -69.53,169.22z"/>
   <path class="fil4 str0" d="M20182.1 1045.4c74.39,0 134.68,60.3 134.68,134.69 0,74.4 -60.29,134.69 -134.68,134.69 -74.4,0 -134.69,-60.29 -134.69,-134.69 0,-74.39 60.29,-134.69 134.69,-134.69z"/>
   <path class="fil4 str0" d="M21394.89 1045.4c74.39,0 134.69,60.3 134.69,134.69 0,74.4 -60.3,134.69 -134.69,134.69 -74.39,0 -134.69,-60.29 -134.69,-134.69 0,-74.39 60.3,-134.69 134.69,-134.69z"/>
  </g>
 </g>
</svg>
